<?xml version="1.0" ?><svg viewBox="0 0 500 500" xmlns="http://www.w3.org/2000/svg"><defs><style>.cls-1{fill:#f8b62d;}.cls-1,.cls-2{stroke:#231815;stroke-miterlimit:10;}.cls-2,.cls-4{fill:#231815;}.cls-3{fill:#fff;}</style></defs><title/><g data-name="图层 1" id="图层_1">
<path class="cls-1" d="M236.75,272.11A82.26,82.26,0,0,1,316,241.64a76.19,76.19,0,0,1,10.36,2.59,82.65,82.65,0,0,0-64.92-68.08C228.11,169.4,193.17,185,175.64,214a83,83,0,0,0-4.41,76.58c.47-.46.94-.92,1.42-1.37A70.52,70.52,0,0,1,236.75,272.11Z"/>
<path class="cls-3" d="M405.36,347.5c1,19.06-10.19,37.28-28.18,44.17-8.12,3.11-16.25,2.95-24.71,2.95H237c-5.48,0-11,.05-16.45,0a54.71,54.71,0,0,1-50-77.11,53.89,53.89,0,0,1,6-10.38c.78-1.05,1.59-2.06,2.44-3,14.38-16.69,37.56-22.69,58.65-16.18,3.34,1,6.63-.74,8.47-3.45,14.64-21.53,41.42-33.13,67.15-28.1a66.85,66.85,0,0,1,13.82,4.31c.87.38,1.73.77,2.57,1.18s1.94,1,2.89,1.49a67,67,0,0,1,31.6,38.11,6.37,6.37,0,0,0,5.31,5.44C388.93,311.09,404.25,327.28,405.36,347.5Z"/>
<path class="cls-4" d="M378.92,301.75a51.75,51.75,0,0,1-17.73,100.37H220.54a62.24,62.24,0,1,1,19.18-121.44,73.75,73.75,0,0,1,87.48-28.16l1,.38a72.34,72.34,0,0,1,13.39,7c.22.14.44.28.65.43A73.93,73.93,0,0,1,369,292.77c.95,2.24,1.8,4.54,2.53,6.89A50.84,50.84,0,0,1,378.92,301.75Zm-1.74,89.92c18-6.89,29.22-25.11,28.18-44.17-1.11-20.22-16.43-36.41-35.82-40.61a6.37,6.37,0,0,1-5.31-5.44,67,67,0,0,0-31.6-38.11c-1-.52-1.91-1-2.89-1.49s-1.7-.8-2.57-1.18a66.85,66.85,0,0,0-13.82-4.31c-25.73-5-52.51,6.57-67.15,28.1-1.84,2.71-5.13,4.48-8.47,3.45-21.09-6.51-44.27-.51-58.65,16.18-.85,1-1.66,2-2.44,3a53.89,53.89,0,0,0-6,10.38,54.71,54.71,0,0,0,50,77.11c5.48.05,11,0,16.45,0H352.47C360.93,394.62,369.06,394.78,377.18,391.67Z"/></g>
</svg>